<?xml version="1.0" encoding="UTF-8" standalone="no"?>
<svg
   xmlns:dc="http://purl.org/dc/elements/1.1/"
   xmlns:cc="http://creativecommons.org/ns#"
   xmlns:rdf="http://www.w3.org/1999/02/22-rdf-syntax-ns#"
   xmlns:svg="http://www.w3.org/2000/svg"
   xmlns="http://www.w3.org/2000/svg"
   xmlns:sodipodi="http://sodipodi.sourceforge.net/DTD/sodipodi-0.dtd"
   xmlns:inkscape="http://www.inkscape.org/namespaces/inkscape"
   width="1000"
   height="1000"
   viewBox="0 0 264.58333 264.58334"
   version="1.1"
   id="svg8"
   inkscape:version="1.0.2 (e86c8708, 2021-01-15)"
   sodipodi:docname="favicon.svg">
  <defs
     id="defs2" />
  <sodipodi:namedview
     id="base"
     pagecolor="#ffffff"
     bordercolor="#666666"
     borderopacity="1.0"
     inkscape:pageopacity="0.03137255"
     inkscape:pageshadow="2"
     inkscape:zoom="0.7"
     inkscape:cx="375.71429"
     inkscape:cy="504.57801"
     inkscape:document-units="px"
     inkscape:current-layer="layer1"
     inkscape:document-rotation="0"
     showgrid="false"
     units="px"
     inkscape:window-width="1680"
     inkscape:window-height="997"
     inkscape:window-x="0"
     inkscape:window-y="25"
     inkscape:window-maximized="0"
     inkscape:pagecheckerboard="true"
     inkscape:showpageshadow="false"
     showborder="true" />
  <metadata
     id="metadata5">
    <rdf:RDF>
      <cc:Work
         rdf:about="">
        <dc:format>image/svg+xml</dc:format>
        <dc:type
           rdf:resource="http://purl.org/dc/dcmitype/StillImage" />
        <dc:title></dc:title>
      </cc:Work>
    </rdf:RDF>
  </metadata>
  <g
     inkscape:label="Layer 1"
     inkscape:groupmode="layer"
     id="layer1">
    <path
       style="fill:#00c400;fill-opacity:1;stroke:#000000;stroke-width:0.373201px;stroke-linecap:butt;stroke-linejoin:miter;stroke-opacity:1"
       d="M 87.270442,168.27635 C 140.22238,158.08156 47.538907,89.761029 71.406423,67.741187 c 40.099477,-36.995217 6.231339,26.18752 17.910989,27.77215 1.13545,0.154049 1.266147,-2.125482 1.53523,-3.332658 2.297282,-10.306309 4.170885,-20.718999 6.140915,-31.104808 0.41847,-2.206147 -0.16657,-8.510565 1.02348,-6.665317 2.206953,3.422035 1.53528,8.193034 2.558713,12.219749 0.34547,1.359268 0.84522,5.082808 1.53523,3.8881 7.57864,-13.122144 12.79678,-27.707265 19.95795,-41.102778 0.91006,-1.702327 3.26088,-5.63624 4.09394,-3.8881 2.87412,6.031132 -2.67195,20.157569 3.5822,19.995944 40.13294,-1.037143 -7.62056,-49.9798094 44.52159,-40.5473312 2.22986,0.4033787 -15.54117,40.4019752 -16.37576,42.2136622 -1.40042,3.040032 -7.73712,8.887086 -4.60568,8.887086 5.95081,0 10.30307,-6.587722 15.86402,-8.887086 5.25797,-2.174089 17.03867,-10.508077 16.37576,-4.443547 -1.55804,14.253455 -12.59929,25.28877 -19.95795,37.214677 -34.97565,56.68357 -5.69515,0.68076 -24.05191,35.54834 -0.11969,0.22735 0.2829,-0.47264 0.51175,-0.55543 5.42543,-1.96293 13.81819,-11.10639 16.37575,-5.55443 3.42864,7.44285 -5.05178,15.73529 -8.18787,23.3286 -1.31655,3.18773 -3.54486,5.83911 -5.11742,8.88709 -3.07046,6.29502 -6.14092,12.59004 -9.21136,18.88506 -1.19408,1.48117 -2.56071,2.81741 -3.58221,4.44354 -1.76406,2.80822 -2.39141,6.48372 -4.60568,8.88708 -1.49197,1.6194 -4.08341,-1.15877 -6.14092,-1.66632 -6.07591,-1.49882 -11.77551,-0.74093 -17.91097,-1.1109 -5.394233,-0.32525 -11.085892,-1.73327 -16.375768,-2.77721 z"
       id="path833" />
    <path
       style="fill:#e1b000;fill-opacity:1;stroke:#000000;stroke-width:0.373201px;stroke-linecap:butt;stroke-linejoin:miter;stroke-opacity:1"
       d="m 106.20492,124.39636 c -5.45859,2.03662 -11.016513,3.78311 -16.375768,6.10987 -4.34594,1.88683 -4.79107,11.71254 -6.140907,16.10785 -2.054068,6.68842 -5.263763,12.89454 -7.67614,19.4405 -0.253408,0.68763 -0.09219,1.48797 0,2.22177 0.443333,3.52873 1.110844,7.02195 1.535229,10.55342 0.985944,8.20441 -0.85455,17.39673 1.023485,25.55037 2.473962,10.74092 11.180458,24.14626 15.352276,32.77113 0.237879,0.4918 0,1.11089 0,1.66634 2.388132,4.07324 4.019052,8.80578 7.164405,12.21974 0.90528,0.9826 11.94629,2.84097 13.3053,3.33266 4.2075,1.52227 8.00851,4.26604 12.28182,5.55442 4.14127,1.2486 19.31351,-3.34387 23.02841,-4.44355 0.16457,-0.0488 0.34116,0 0.51174,0 4.60568,-1.48116 9.71576,-1.72919 13.81705,-4.44353 9.75296,-6.45477 10.25115,-24.17116 12.28182,-33.32657 2.54435,-11.47138 1.11494,-1.96656 1.53523,-16.10786 0.0772,-2.5973 0.51173,-5.17752 0.51173,-7.77619 0,-10.19238 -2.49557,-19.31095 -5.11742,-28.88304 -2.32901,-8.50291 -3.11005,-19.06202 -7.67613,-26.66125 -2.89384,-4.81614 -8.567,0.69941 -11.25834,-2.22178 -1.29448,-1.40502 -1.36928,-3.84306 -3.58219,-4.44355 -1.82788,-0.49599 -3.7933,0.0957 -5.62917,0.55546 -0.47012,0.1177 -0.57552,1.30537 -1.02348,1.11088 -0.79191,-0.34381 -0.81568,-1.72476 -1.53523,-2.22176 -2.74001,-1.89256 -13.63348,-4.99635 -16.37577,-5.55445 -6.55768,-1.33456 -13.41124,0.31029 -19.95795,-1.11088 z"
       id="path835" />
  </g>
</svg>
